<?xml version="1.0" encoding="UTF-8" standalone="no"?><!-- Generator: Gravit.io --><svg xmlns="http://www.w3.org/2000/svg" xmlns:xlink="http://www.w3.org/1999/xlink" style="isolation:isolate" viewBox="0 0 2500 2500" width="2500pt" height="2500pt"><g><path d=" M 1249.766 0.282 L 1233.01 57.236 L 1233.01 1709.922 L 1249.766 1726.649 L 2016.924 1273.183 L 1249.766 0.282 Z " fill="rgb(52,52,52)"/><path d=" M 1249.772 0.282 L 482.614 1273.183 L 1249.772 1726.655 L 1249.772 924.49 L 1249.772 0.282 Z " fill="rgb(140,140,140)"/><path d=" M 1249.766 1871.907 L 1240.324 1883.417 L 1240.324 2472.14 L 1249.766 2499.718 L 2017.386 1418.669 L 1249.766 1871.907 Z " fill="rgb(60,60,59)"/><path d=" M 1249.772 2499.712 L 1249.772 1871.894 L 482.614 1418.657 L 1249.772 2499.712 Z " fill="rgb(140,140,140)"/><path d=" M 1249.766 1726.649 L 2016.913 1273.189 L 1249.766 924.496 L 1249.766 1726.649 Z " fill="rgb(20,20,20)"/><path d=" M 482.614 1273.183 L 1249.76 1726.649 L 1249.76 924.49 L 482.614 1273.183 Z " fill="rgb(57,57,57)"/></g></svg>